<mxfile host="app.diagrams.net" modified="2022-05-25T14:58:10.466Z" agent="5.0 (Windows NT 10.0; Win64; x64) AppleWebKit/537.36 (KHTML, like Gecko) Chrome/101.0.4951.64 Safari/537.36 Edg/101.0.1210.53" etag="lGQyqvmlH8zvtU8vhK7C" version="17.2.1" type="github">
  <diagram id="ZsQ9wgLhQumiN2ofr7Z0" name="Page-1">
    <mxGraphModel dx="1452" dy="951" grid="0" gridSize="10" guides="1" tooltips="1" connect="1" arrows="1" fold="1" page="0" pageScale="1" pageWidth="827" pageHeight="1169" math="0" shadow="0">
      <root>
        <mxCell id="0" />
        <mxCell id="1" parent="0" />
        <mxCell id="-YRlemm83X5S1V-Vt4lk-1" value="Lнч(RP):=(Kчт(RP)*Lнч(RP))[мл]" style="rounded=0;whiteSpace=wrap;html=1;" parent="1" vertex="1">
          <mxGeometry x="94.5" y="-13" width="233" height="30" as="geometry" />
        </mxCell>
        <mxCell id="-YRlemm83X5S1V-Vt4lk-2" value="Mчт(OP):=2^-1*Mнч[OP[i(RP)*2]](OP)&lt;br&gt;i(RP):=i(RP)-1" style="rounded=0;whiteSpace=wrap;html=1;" parent="1" vertex="1">
          <mxGeometry x="92.75" y="49" width="236.5" height="30" as="geometry" />
        </mxCell>
        <mxCell id="-YRlemm83X5S1V-Vt4lk-3" value="Lнч(RP):=(Kчт(RP)*Lнч(RP))[мл]" style="rounded=0;whiteSpace=wrap;html=1;" parent="1" vertex="1">
          <mxGeometry x="114.25" y="277" width="193.5" height="30" as="geometry" />
        </mxCell>
        <mxCell id="-YRlemm83X5S1V-Vt4lk-4" value="Mнч(OP):=2^-1*Mчт[OP[i(RP)*2]](OP)&lt;br&gt;i(RP):=i(RP)-1" style="rounded=0;whiteSpace=wrap;html=1;" parent="1" vertex="1">
          <mxGeometry x="98" y="351" width="226" height="30" as="geometry" />
        </mxCell>
        <mxCell id="-YRlemm83X5S1V-Vt4lk-5" value="CF" style="rhombus;whiteSpace=wrap;html=1;" parent="1" vertex="1">
          <mxGeometry x="146" y="410" width="130" height="50" as="geometry" />
        </mxCell>
        <mxCell id="-YRlemm83X5S1V-Vt4lk-6" value="Безусловный&lt;br&gt;переход" style="rhombus;whiteSpace=wrap;html=1;" parent="1" vertex="1">
          <mxGeometry x="146" y="100" width="130" height="50" as="geometry" />
        </mxCell>
        <mxCell id="-YRlemm83X5S1V-Vt4lk-7" value="" style="edgeStyle=elbowEdgeStyle;elbow=horizontal;endArrow=classic;html=1;rounded=0;exitX=1;exitY=0.5;exitDx=0;exitDy=0;" parent="1" source="-YRlemm83X5S1V-Vt4lk-5" edge="1">
          <mxGeometry width="50" height="50" relative="1" as="geometry">
            <mxPoint x="365" y="370" as="sourcePoint" />
            <mxPoint x="212" y="32" as="targetPoint" />
            <Array as="points">
              <mxPoint x="365" y="330" />
            </Array>
          </mxGeometry>
        </mxCell>
        <mxCell id="-YRlemm83X5S1V-Vt4lk-8" value="END" style="ellipse;whiteSpace=wrap;html=1;" parent="1" vertex="1">
          <mxGeometry x="151" y="490" width="120" height="50" as="geometry" />
        </mxCell>
        <mxCell id="-YRlemm83X5S1V-Vt4lk-9" value="START" style="ellipse;whiteSpace=wrap;html=1;" parent="1" vertex="1">
          <mxGeometry x="151" y="-80" width="120" height="50" as="geometry" />
        </mxCell>
        <mxCell id="-YRlemm83X5S1V-Vt4lk-10" value="" style="rounded=0;whiteSpace=wrap;html=1;" parent="1" vertex="1">
          <mxGeometry x="151" y="194" width="120" height="25" as="geometry" />
        </mxCell>
        <mxCell id="-YRlemm83X5S1V-Vt4lk-12" value="" style="endArrow=classic;html=1;rounded=0;exitX=0.5;exitY=1;exitDx=0;exitDy=0;entryX=0.5;entryY=0;entryDx=0;entryDy=0;" parent="1" source="-YRlemm83X5S1V-Vt4lk-3" target="-YRlemm83X5S1V-Vt4lk-4" edge="1">
          <mxGeometry width="50" height="50" relative="1" as="geometry">
            <mxPoint x="54" y="404" as="sourcePoint" />
            <mxPoint x="104" y="354" as="targetPoint" />
          </mxGeometry>
        </mxCell>
        <mxCell id="-YRlemm83X5S1V-Vt4lk-13" value="" style="endArrow=classic;html=1;rounded=0;exitX=0.5;exitY=1;exitDx=0;exitDy=0;entryX=0.5;entryY=0;entryDx=0;entryDy=0;" parent="1" source="-YRlemm83X5S1V-Vt4lk-4" target="-YRlemm83X5S1V-Vt4lk-5" edge="1">
          <mxGeometry width="50" height="50" relative="1" as="geometry">
            <mxPoint x="54" y="404" as="sourcePoint" />
            <mxPoint x="104" y="354" as="targetPoint" />
          </mxGeometry>
        </mxCell>
        <mxCell id="-YRlemm83X5S1V-Vt4lk-14" value="" style="endArrow=classic;html=1;rounded=0;exitX=0.5;exitY=1;exitDx=0;exitDy=0;entryX=0.5;entryY=0;entryDx=0;entryDy=0;" parent="1" source="-YRlemm83X5S1V-Vt4lk-9" target="-YRlemm83X5S1V-Vt4lk-1" edge="1">
          <mxGeometry width="50" height="50" relative="1" as="geometry">
            <mxPoint x="98" y="121" as="sourcePoint" />
            <mxPoint x="148" y="71" as="targetPoint" />
          </mxGeometry>
        </mxCell>
        <mxCell id="-YRlemm83X5S1V-Vt4lk-15" value="" style="endArrow=classic;html=1;rounded=0;exitX=0.5;exitY=1;exitDx=0;exitDy=0;entryX=0.5;entryY=0;entryDx=0;entryDy=0;" parent="1" source="-YRlemm83X5S1V-Vt4lk-1" target="-YRlemm83X5S1V-Vt4lk-2" edge="1">
          <mxGeometry width="50" height="50" relative="1" as="geometry">
            <mxPoint x="98" y="121" as="sourcePoint" />
            <mxPoint x="148" y="71" as="targetPoint" />
          </mxGeometry>
        </mxCell>
        <mxCell id="-YRlemm83X5S1V-Vt4lk-16" value="" style="endArrow=classic;html=1;rounded=0;entryX=0.5;entryY=0;entryDx=0;entryDy=0;exitX=0.5;exitY=1;exitDx=0;exitDy=0;" parent="1" source="-YRlemm83X5S1V-Vt4lk-2" target="-YRlemm83X5S1V-Vt4lk-6" edge="1">
          <mxGeometry width="50" height="50" relative="1" as="geometry">
            <mxPoint x="98" y="121" as="sourcePoint" />
            <mxPoint x="148" y="71" as="targetPoint" />
          </mxGeometry>
        </mxCell>
        <mxCell id="-YRlemm83X5S1V-Vt4lk-18" value="" style="edgeStyle=elbowEdgeStyle;elbow=horizontal;endArrow=classic;html=1;rounded=0;exitX=0;exitY=0.5;exitDx=0;exitDy=0;" parent="1" source="-YRlemm83X5S1V-Vt4lk-6" edge="1">
          <mxGeometry width="50" height="50" relative="1" as="geometry">
            <mxPoint x="90" y="130" as="sourcePoint" />
            <mxPoint x="207" y="263" as="targetPoint" />
            <Array as="points">
              <mxPoint x="123" y="197" />
              <mxPoint x="68" y="166" />
              <mxPoint x="82" y="99" />
            </Array>
          </mxGeometry>
        </mxCell>
        <mxCell id="-YRlemm83X5S1V-Vt4lk-19" value="" style="endArrow=classic;html=1;rounded=0;exitX=0.5;exitY=1;exitDx=0;exitDy=0;entryX=0.5;entryY=0;entryDx=0;entryDy=0;" parent="1" source="-YRlemm83X5S1V-Vt4lk-10" target="-YRlemm83X5S1V-Vt4lk-3" edge="1">
          <mxGeometry width="50" height="50" relative="1" as="geometry">
            <mxPoint x="54" y="310" as="sourcePoint" />
            <mxPoint x="104" y="260" as="targetPoint" />
          </mxGeometry>
        </mxCell>
        <mxCell id="-YRlemm83X5S1V-Vt4lk-20" value="" style="endArrow=classic;html=1;rounded=0;exitX=0.5;exitY=1;exitDx=0;exitDy=0;entryX=0.5;entryY=0;entryDx=0;entryDy=0;" parent="1" source="-YRlemm83X5S1V-Vt4lk-5" target="-YRlemm83X5S1V-Vt4lk-8" edge="1">
          <mxGeometry width="50" height="50" relative="1" as="geometry">
            <mxPoint x="-3" y="472" as="sourcePoint" />
            <mxPoint x="47" y="422" as="targetPoint" />
          </mxGeometry>
        </mxCell>
        <mxCell id="-YRlemm83X5S1V-Vt4lk-21" value="1" style="text;html=1;align=center;verticalAlign=middle;resizable=0;points=[];autosize=1;strokeColor=none;fillColor=none;" parent="1" vertex="1">
          <mxGeometry x="283" y="416" width="17" height="18" as="geometry" />
        </mxCell>
        <mxCell id="-YRlemm83X5S1V-Vt4lk-22" value="0" style="text;html=1;align=center;verticalAlign=middle;resizable=0;points=[];autosize=1;strokeColor=none;fillColor=none;" parent="1" vertex="1">
          <mxGeometry x="218" y="459" width="17" height="18" as="geometry" />
        </mxCell>
        <mxCell id="nqMPGrURCQxkviRPuzf--2" value="1" style="text;html=1;align=center;verticalAlign=middle;resizable=0;points=[];autosize=1;strokeColor=none;fillColor=none;" vertex="1" parent="1">
          <mxGeometry x="202.5" y="-113" width="17" height="18" as="geometry" />
        </mxCell>
        <mxCell id="nqMPGrURCQxkviRPuzf--3" value="A" style="text;html=1;align=center;verticalAlign=middle;resizable=0;points=[];autosize=1;strokeColor=none;fillColor=none;" vertex="1" parent="1">
          <mxGeometry x="34" y="-58" width="18" height="18" as="geometry" />
        </mxCell>
        <mxCell id="nqMPGrURCQxkviRPuzf--4" value="B" style="text;html=1;align=center;verticalAlign=middle;resizable=0;points=[];autosize=1;strokeColor=none;fillColor=none;" vertex="1" parent="1">
          <mxGeometry x="34" y="-7" width="18" height="18" as="geometry" />
        </mxCell>
        <mxCell id="nqMPGrURCQxkviRPuzf--5" value="C" style="text;html=1;align=center;verticalAlign=middle;resizable=0;points=[];autosize=1;strokeColor=none;fillColor=none;" vertex="1" parent="1">
          <mxGeometry x="34" y="54" width="19" height="18" as="geometry" />
        </mxCell>
        <mxCell id="nqMPGrURCQxkviRPuzf--6" value="D" style="text;html=1;align=center;verticalAlign=middle;resizable=0;points=[];autosize=1;strokeColor=none;fillColor=none;" vertex="1" parent="1">
          <mxGeometry x="36" y="116" width="19" height="18" as="geometry" />
        </mxCell>
        <mxCell id="nqMPGrURCQxkviRPuzf--7" value="E" style="text;html=1;align=center;verticalAlign=middle;resizable=0;points=[];autosize=1;strokeColor=none;fillColor=none;" vertex="1" parent="1">
          <mxGeometry x="38" y="197.5" width="18" height="18" as="geometry" />
        </mxCell>
        <mxCell id="nqMPGrURCQxkviRPuzf--8" value="F" style="text;html=1;align=center;verticalAlign=middle;resizable=0;points=[];autosize=1;strokeColor=none;fillColor=none;" vertex="1" parent="1">
          <mxGeometry x="41" y="286" width="17" height="18" as="geometry" />
        </mxCell>
        <mxCell id="nqMPGrURCQxkviRPuzf--9" value="G" style="text;html=1;align=center;verticalAlign=middle;resizable=0;points=[];autosize=1;strokeColor=none;fillColor=none;" vertex="1" parent="1">
          <mxGeometry x="41" y="359" width="19" height="18" as="geometry" />
        </mxCell>
        <mxCell id="nqMPGrURCQxkviRPuzf--10" value="H" style="text;html=1;align=center;verticalAlign=middle;resizable=0;points=[];autosize=1;strokeColor=none;fillColor=none;" vertex="1" parent="1">
          <mxGeometry x="40" y="434" width="19" height="18" as="geometry" />
        </mxCell>
        <mxCell id="nqMPGrURCQxkviRPuzf--11" value="A0" style="text;html=1;align=center;verticalAlign=middle;resizable=0;points=[];autosize=1;strokeColor=none;fillColor=none;" vertex="1" parent="1">
          <mxGeometry x="388" y="-7" width="25" height="18" as="geometry" />
        </mxCell>
        <mxCell id="nqMPGrURCQxkviRPuzf--12" value="A2" style="text;html=1;align=center;verticalAlign=middle;resizable=0;points=[];autosize=1;strokeColor=none;fillColor=none;" vertex="1" parent="1">
          <mxGeometry x="389" y="55" width="25" height="18" as="geometry" />
        </mxCell>
        <mxCell id="nqMPGrURCQxkviRPuzf--13" value="A5" style="text;html=1;align=center;verticalAlign=middle;resizable=0;points=[];autosize=1;strokeColor=none;fillColor=none;" vertex="1" parent="1">
          <mxGeometry x="387" y="110" width="25" height="18" as="geometry" />
        </mxCell>
        <mxCell id="nqMPGrURCQxkviRPuzf--14" value="A9" style="text;html=1;align=center;verticalAlign=middle;resizable=0;points=[];autosize=1;strokeColor=none;fillColor=none;" vertex="1" parent="1">
          <mxGeometry x="387" y="283" width="25" height="18" as="geometry" />
        </mxCell>
        <mxCell id="nqMPGrURCQxkviRPuzf--15" value="A11" style="text;html=1;align=center;verticalAlign=middle;resizable=0;points=[];autosize=1;strokeColor=none;fillColor=none;" vertex="1" parent="1">
          <mxGeometry x="385" y="356" width="30" height="18" as="geometry" />
        </mxCell>
        <mxCell id="nqMPGrURCQxkviRPuzf--16" value="A14" style="text;html=1;align=center;verticalAlign=middle;resizable=0;points=[];autosize=1;strokeColor=none;fillColor=none;" vertex="1" parent="1">
          <mxGeometry x="387" y="422" width="31" height="18" as="geometry" />
        </mxCell>
        <mxCell id="nqMPGrURCQxkviRPuzf--17" value="I" style="text;html=1;align=center;verticalAlign=middle;resizable=0;points=[];autosize=1;strokeColor=none;fillColor=none;" vertex="1" parent="1">
          <mxGeometry x="44" y="506" width="13" height="18" as="geometry" />
        </mxCell>
      </root>
    </mxGraphModel>
  </diagram>
</mxfile>
